<svg id="Shield_Protected_Keyhole" data-name="Shield, Protected, Keyhole" xmlns="http://www.w3.org/2000/svg" width="46.333" height="46.333" viewBox="0 0 46.333 46.333">
  <path id="Tracé_202" data-name="Tracé 202" d="M0,0H46.333V46.333H0Z" fill="none"/>
  <path id="Tracé_203" data-name="Tracé 203" d="M34.889,18.911a19.971,19.971,0,0,1-14.441,18.7,3.7,3.7,0,0,1-2.008,0A19.969,19.969,0,0,1,4,18.911V11.135A3.86,3.86,0,0,1,6.4,7.562L15.79,3.72a9.644,9.644,0,0,1,7.311,0l9.39,3.842a3.861,3.861,0,0,1,2.4,3.573Z" transform="translate(3.722 2.792)" fill="none" stroke="#275ef6" stroke-linecap="round" stroke-linejoin="round" stroke-width="2.5"/>
  <path id="Tracé_204" data-name="Tracé 204" d="M16.885,15.112a3.983,3.983,0,0,0,.863-3.716,3.926,3.926,0,0,0-2.766-2.757,3.977,3.977,0,0,0-4.037,6.473,1.948,1.948,0,0,1,.446,1.83l-.745,2.612A1.93,1.93,0,0,0,12.5,22.016h2.83a1.932,1.932,0,0,0,1.857-2.461l-.745-2.612A1.935,1.935,0,0,1,16.885,15.112Z" transform="translate(9.251 7.91)" fill="none" stroke="#275ef6" stroke-linecap="round" stroke-linejoin="round" stroke-width="2.5"/>
</svg>
